<svg xmlns="http://www.w3.org/2000/svg" xmlns:svg="http://www.w3.org/2000/svg" id="svg8" width="118.996" height="20.511" version="1.1" viewBox="0 0 31.484 5.427"><metadata id="metadata5"/><g id="layer1" transform="translate(-114.36614,-90.840872)"><g id="g1474" style="stroke:#27262b;stroke-opacity:1"><g id="g840" transform="matrix(0.26458333,0,0,0.26458333,117.40885,93.554318)" style="stroke:#27262b;stroke-opacity:1"><g style="fill:none;stroke:#27262b;stroke-width:1;stroke-opacity:1" id="g825"><ellipse id="ellipse819" cx="0" cy="0" rx="11" ry="4.2" style="stroke:#27262b;stroke-opacity:1"/><ellipse id="ellipse821" cx="0" cy="0" rx="11" ry="4.2" transform="rotate(60)" style="stroke:#27262b;stroke-opacity:1"/><ellipse id="ellipse823" cx="0" cy="0" rx="11" ry="4.2" transform="rotate(120)" style="stroke:#27262b;stroke-opacity:1"/></g></g><path style="opacity:1;fill:#27262b;fill-opacity:1;stroke:#27262b;stroke-width:0;stroke-linecap:butt;stroke-linejoin:miter;stroke-miterlimit:4;stroke-dasharray:none;stroke-opacity:1;paint-order:normal" id="path842" d="m 117.04297,92.671875 c -0.0376,-0.0017 -0.0777,0.01144 -0.11133,0.03516 -0.0685,0.03195 -0.11328,0.10104 -0.11328,0.177735 v 1.392578 c 0,0.08051 0.0467,0.14547 0.10547,0.18164 a 0.02904241,0.02904241 0 0 0 0.004,0.002 c 0.004,0.0019 0.009,0.0027 0.0137,0.0039 0.0218,0.0082 0.0523,0.02148 0.0918,0.02148 0.0384,0 0.0792,-0.0081 0.11914,-0.0332 l 1.11524,-0.691406 c 0.0649,-0.03993 0.0977,-0.11145 0.0977,-0.181641 0,-0.06756 -0.0306,-0.134181 -0.0898,-0.175781 l -0.004,-0.0039 a 0.02904241,0.02904241 0 0 0 -0.002,-0.002 0.02904241,0.02904241 0 0 0 -0.002,-0.002 l -1.11524,-0.693359 a 0.02904241,0.02904241 0 0 0 -0.002,0 c -0.001,-6.24e-4 -0.003,-0.0014 -0.004,-0.002 -0.0294,-0.01471 -0.0649,-0.02758 -0.10351,-0.0293 z m 0.0977,0.408203 0.80274,0.5 -0.80274,0.496094 z" transform="matrix(0.81349203,0,0,0.81349203,21.925902,17.428512)"/></g><g id="g1466" transform="translate(0,0.01004502)" style="fill:#27262b;fill-opacity:1"><text id="text854" x="120.841" y="93.058" xml:space="preserve" style="font-style:normal;font-variant:normal;font-weight:400;font-stretch:normal;font-size:10.58333302px;line-height:1.25;font-family:Jost;-inkscape-font-specification:Jost;letter-spacing:0;word-spacing:0;fill:#27262b;fill-opacity:1;stroke:none;stroke-width:.26458332;stroke-opacity:1"><tspan id="tspan860" x="120.841" y="93.058" style="font-style:normal;font-variant:normal;font-weight:700;font-stretch:normal;font-size:2.11666656px;line-height:0%;font-family:Jost;-inkscape-font-specification:'Jost Bold';text-align:start;writing-mode:lr-tb;direction:ltr;text-anchor:start;fill:#27262b;fill-opacity:1;stroke:none;stroke-width:.26458332;stroke-opacity:1">REACT-NATIVE</tspan></text><text id="text866" x="121" y="95.542" xml:space="preserve" style="font-style:normal;font-variant:normal;font-weight:400;font-stretch:normal;font-size:10.58333302px;line-height:1.25;font-family:Jost;-inkscape-font-specification:Jost;letter-spacing:0;word-spacing:0;fill:#27262b;fill-opacity:1;stroke:none;stroke-width:.26458332;stroke-opacity:1"><tspan style="font-style:normal;font-variant:normal;font-weight:900;font-stretch:normal;font-size:3.17499995px;font-family:Jost;-inkscape-font-specification:'Jost Heavy';fill:#27262b;fill-opacity:1;stroke:none;stroke-width:.26458332;stroke-opacity:1" id="tspan864" x="121" y="95.542">TRACK-PLAYER</tspan></text></g></g></svg>